<svg width="20" height="20" viewBox="0 0 20 20" fill="none" xmlns="http://www.w3.org/2000/svg">
<g clip-path="url(#clip0_5013_14447)">
<path d="M9.99805 5.86719C11.4976 5.86719 12.7234 7.08563 12.7236 8.5918C12.7236 10.0965 11.4994 11.3086 9.99805 11.3086C8.49857 11.3084 7.27351 10.0901 7.27344 8.58398C7.27344 7.07945 8.49684 5.8674 9.99805 5.86719ZM9.99805 6.11719C8.64025 6.1174 7.52365 7.22293 7.52344 8.5918C7.52344 9.95948 8.63042 11.0672 9.99805 11.0674C11.3659 11.0674 12.4736 9.95961 12.4736 8.5918C12.4734 7.2228 11.356 6.11719 9.99805 6.11719Z" fill="white" stroke="#4D6C9A"/>
<path d="M9.99941 18.967C8.76608 18.967 7.52441 18.5003 6.55775 17.5753C4.09941 15.2087 1.38275 11.4337 2.40775 6.94199C3.33275 2.86699 6.89108 1.04199 9.99941 1.04199C9.99941 1.04199 9.99942 1.04199 10.0077 1.04199C13.1161 1.04199 16.6744 2.86699 17.5994 6.95033C18.6161 11.442 15.8994 15.2087 13.4411 17.5753C12.4744 18.5003 11.2327 18.967 9.99941 18.967ZM9.99941 2.29199C7.57441 2.29199 4.45775 3.58366 3.63275 7.21699C2.73275 11.142 5.19941 14.5253 7.43275 16.667C8.87441 18.0587 11.1327 18.0587 12.5744 16.667C14.7994 14.5253 17.2661 11.142 16.3827 7.21699C15.5494 3.58366 12.4244 2.29199 9.99941 2.29199Z" fill="#4D6C9A"/>
</g>
<defs>
<clipPath id="clip0_5013_14447">
<rect width="20" height="20" fill="white"/>
</clipPath>
</defs>
</svg>
